<svg width="591" height="270" viewBox="0 0 591 270" fill="none" xmlns="http://www.w3.org/2000/svg">
<g clip-path="url(#clip0_669_6706)">
<circle cx="12.6672" cy="12.6667" r="1.40741" fill="#B6B6B6"/>
<circle cx="12.6672" cy="164.667" r="1.40741" fill="#B6B6B6"/>
<circle cx="164.667" cy="12.6667" r="1.40741" fill="#B6B6B6"/>
<circle cx="367.333" cy="12.6667" r="1.40741" fill="#B6B6B6"/>
<circle cx="569.999" cy="12.6667" r="1.40741" fill="#B6B6B6"/>
<circle cx="164.667" cy="164.667" r="1.40741" fill="#B6B6B6"/>
<circle cx="367.333" cy="164.667" r="1.40741" fill="#B6B6B6"/>
<circle cx="569.999" cy="164.667" r="1.40741" fill="#B6B6B6"/>
<circle cx="12.6672" cy="114" r="1.40741" fill="#B6B6B6"/>
<circle cx="12.6672" cy="266" r="1.40741" fill="#B6B6B6"/>
<circle cx="164.667" cy="114" r="1.40741" fill="#B6B6B6"/>
<circle cx="367.333" cy="114" r="1.40741" fill="#B6B6B6"/>
<circle cx="569.999" cy="114" r="1.40741" fill="#B6B6B6"/>
<circle cx="164.667" cy="266" r="1.40741" fill="#B6B6B6"/>
<circle cx="367.333" cy="266" r="1.40741" fill="#B6B6B6"/>
<circle cx="569.999" cy="266" r="1.40741" fill="#B6B6B6"/>
<circle cx="12.6672" cy="63.3334" r="1.40741" fill="#B6B6B6"/>
<circle cx="12.6672" cy="215.333" r="1.40741" fill="#B6B6B6"/>
<circle cx="164.667" cy="63.3334" r="1.40741" fill="#B6B6B6"/>
<circle cx="367.333" cy="63.3334" r="1.40741" fill="#B6B6B6"/>
<circle cx="569.999" cy="63.3334" r="1.40741" fill="#B6B6B6"/>
<circle cx="164.667" cy="215.333" r="1.40741" fill="#B6B6B6"/>
<circle cx="367.333" cy="215.333" r="1.40741" fill="#B6B6B6"/>
<circle cx="569.999" cy="215.333" r="1.40741" fill="#B6B6B6"/>
<circle cx="12.6672" cy="37.9999" r="1.40741" fill="#B6B6B6"/>
<circle cx="12.6672" cy="190" r="1.40741" fill="#B6B6B6"/>
<circle cx="164.667" cy="37.9999" r="1.40741" fill="#B6B6B6"/>
<circle cx="367.333" cy="37.9999" r="1.40741" fill="#B6B6B6"/>
<circle cx="569.999" cy="37.9999" r="1.40741" fill="#B6B6B6"/>
<circle cx="164.667" cy="190" r="1.40741" fill="#B6B6B6"/>
<circle cx="367.333" cy="190" r="1.40741" fill="#B6B6B6"/>
<circle cx="569.999" cy="190" r="1.40741" fill="#B6B6B6"/>
<circle cx="12.6672" cy="139.333" r="1.40741" fill="#B6B6B6"/>
<circle cx="164.667" cy="139.333" r="1.40741" fill="#B6B6B6"/>
<circle cx="367.333" cy="139.333" r="1.40741" fill="#B6B6B6"/>
<circle cx="569.999" cy="139.333" r="1.40741" fill="#B6B6B6"/>
<circle cx="12.6672" cy="88.6667" r="1.40741" fill="#B6B6B6"/>
<circle cx="12.6672" cy="240.667" r="1.40741" fill="#B6B6B6"/>
<circle cx="164.667" cy="88.6667" r="1.40741" fill="#B6B6B6"/>
<circle cx="367.333" cy="88.6667" r="1.40741" fill="#B6B6B6"/>
<circle cx="569.999" cy="88.6667" r="1.40741" fill="#B6B6B6"/>
<circle cx="164.667" cy="240.667" r="1.40741" fill="#B6B6B6"/>
<circle cx="367.333" cy="240.667" r="1.40741" fill="#B6B6B6"/>
<circle cx="569.999" cy="240.667" r="1.40741" fill="#B6B6B6"/>
<circle cx="113.999" cy="12.6667" r="1.40741" fill="#B6B6B6"/>
<circle cx="316.667" cy="12.6667" r="1.40741" fill="#B6B6B6"/>
<circle cx="519.333" cy="12.6667" r="1.40741" fill="#B6B6B6"/>
<circle cx="113.999" cy="164.667" r="1.40741" fill="#B6B6B6"/>
<circle cx="316.667" cy="164.667" r="1.40741" fill="#B6B6B6"/>
<circle cx="519.333" cy="164.667" r="1.40741" fill="#B6B6B6"/>
<circle cx="265.999" cy="12.6667" r="1.40741" fill="#B6B6B6"/>
<circle cx="468.667" cy="12.6667" r="1.40741" fill="#B6B6B6"/>
<circle cx="265.999" cy="164.667" r="1.40741" fill="#B6B6B6"/>
<circle cx="468.667" cy="164.667" r="1.40741" fill="#B6B6B6"/>
<circle cx="113.999" cy="114" r="1.40741" fill="#B6B6B6"/>
<circle cx="316.667" cy="114" r="1.40741" fill="#B6B6B6"/>
<circle cx="519.333" cy="114" r="1.40741" fill="#B6B6B6"/>
<circle cx="113.999" cy="266" r="1.40741" fill="#B6B6B6"/>
<circle cx="316.667" cy="266" r="1.40741" fill="#B6B6B6"/>
<circle cx="519.333" cy="266" r="1.40741" fill="#B6B6B6"/>
<circle cx="265.999" cy="114" r="1.40741" fill="#B6B6B6"/>
<circle cx="468.667" cy="114" r="1.40741" fill="#B6B6B6"/>
<circle cx="265.999" cy="266" r="1.40741" fill="#B6B6B6"/>
<circle cx="468.667" cy="266" r="1.40741" fill="#B6B6B6"/>
<circle cx="113.999" cy="63.3334" r="1.40741" fill="#B6B6B6"/>
<circle cx="316.667" cy="63.3334" r="1.40741" fill="#B6B6B6"/>
<circle cx="519.333" cy="63.3334" r="1.40741" fill="#B6B6B6"/>
<circle cx="113.999" cy="215.333" r="1.40741" fill="#B6B6B6"/>
<circle cx="316.667" cy="215.333" r="1.40741" fill="#B6B6B6"/>
<circle cx="519.333" cy="215.333" r="1.40741" fill="#B6B6B6"/>
<circle cx="265.999" cy="63.3334" r="1.40741" fill="#B6B6B6"/>
<circle cx="468.667" cy="63.3334" r="1.40741" fill="#B6B6B6"/>
<circle cx="265.999" cy="215.333" r="1.40741" fill="#B6B6B6"/>
<circle cx="468.667" cy="215.333" r="1.40741" fill="#B6B6B6"/>
<circle cx="113.999" cy="37.9999" r="1.40741" fill="#B6B6B6"/>
<circle cx="316.667" cy="37.9999" r="1.40741" fill="#B6B6B6"/>
<circle cx="519.333" cy="37.9999" r="1.40741" fill="#B6B6B6"/>
<circle cx="113.999" cy="190" r="1.40741" fill="#B6B6B6"/>
<circle cx="316.667" cy="190" r="1.40741" fill="#B6B6B6"/>
<circle cx="519.333" cy="190" r="1.40741" fill="#B6B6B6"/>
<circle cx="265.999" cy="37.9999" r="1.40741" fill="#B6B6B6"/>
<circle cx="468.667" cy="37.9999" r="1.40741" fill="#B6B6B6"/>
<circle cx="265.999" cy="190" r="1.40741" fill="#B6B6B6"/>
<circle cx="468.667" cy="190" r="1.40741" fill="#B6B6B6"/>
<circle cx="113.999" cy="139.333" r="1.40741" fill="#B6B6B6"/>
<circle cx="316.667" cy="139.333" r="1.40741" fill="#B6B6B6"/>
<circle cx="519.333" cy="139.333" r="1.40741" fill="#B6B6B6"/>
<circle cx="265.999" cy="139.333" r="1.40741" fill="#B6B6B6"/>
<circle cx="468.667" cy="139.333" r="1.40741" fill="#B6B6B6"/>
<circle cx="113.999" cy="88.6667" r="1.40741" fill="#B6B6B6"/>
<circle cx="316.667" cy="88.6667" r="1.40741" fill="#B6B6B6"/>
<circle cx="519.333" cy="88.6667" r="1.40741" fill="#B6B6B6"/>
<circle cx="113.999" cy="240.667" r="1.40741" fill="#B6B6B6"/>
<circle cx="316.667" cy="240.667" r="1.40741" fill="#B6B6B6"/>
<circle cx="519.333" cy="240.667" r="1.40741" fill="#B6B6B6"/>
<circle cx="265.999" cy="88.6667" r="1.40741" fill="#B6B6B6"/>
<circle cx="468.667" cy="88.6667" r="1.40741" fill="#B6B6B6"/>
<circle cx="265.999" cy="240.667" r="1.40741" fill="#B6B6B6"/>
<circle cx="468.667" cy="240.667" r="1.40741" fill="#B6B6B6"/>
<circle cx="63.3332" cy="12.6667" r="1.40741" fill="#B6B6B6"/>
<circle cx="63.3332" cy="164.667" r="1.40741" fill="#B6B6B6"/>
<circle cx="215.333" cy="12.6667" r="1.40741" fill="#B6B6B6"/>
<circle cx="417.999" cy="12.6667" r="1.40741" fill="#B6B6B6"/>
<circle cx="215.333" cy="164.667" r="1.40741" fill="#B6B6B6"/>
<circle cx="417.999" cy="164.667" r="1.40741" fill="#B6B6B6"/>
<circle cx="63.3332" cy="114" r="1.40741" fill="#B6B6B6"/>
<circle cx="63.3332" cy="266" r="1.40741" fill="#B6B6B6"/>
<circle cx="215.333" cy="114" r="1.40741" fill="#B6B6B6"/>
<circle cx="417.999" cy="114" r="1.40741" fill="#B6B6B6"/>
<circle cx="215.333" cy="266" r="1.40741" fill="#B6B6B6"/>
<circle cx="417.999" cy="266" r="1.40741" fill="#B6B6B6"/>
<circle cx="63.3332" cy="63.3334" r="1.40741" fill="#B6B6B6"/>
<circle cx="63.3332" cy="215.333" r="1.40741" fill="#B6B6B6"/>
<circle cx="215.333" cy="63.3334" r="1.40741" fill="#B6B6B6"/>
<circle cx="417.999" cy="63.3334" r="1.40741" fill="#B6B6B6"/>
<circle cx="215.333" cy="215.333" r="1.40741" fill="#B6B6B6"/>
<circle cx="417.999" cy="215.333" r="1.40741" fill="#B6B6B6"/>
<circle cx="63.3332" cy="37.9999" r="1.40741" fill="#B6B6B6"/>
<circle cx="63.3332" cy="190" r="1.40741" fill="#B6B6B6"/>
<circle cx="215.333" cy="37.9999" r="1.40741" fill="#B6B6B6"/>
<circle cx="417.999" cy="37.9999" r="1.40741" fill="#B6B6B6"/>
<circle cx="215.333" cy="190" r="1.40741" fill="#B6B6B6"/>
<circle cx="417.999" cy="190" r="1.40741" fill="#B6B6B6"/>
<circle cx="63.3332" cy="139.333" r="1.40741" fill="#B6B6B6"/>
<circle cx="215.333" cy="139.333" r="1.40741" fill="#B6B6B6"/>
<circle cx="417.999" cy="139.333" r="1.40741" fill="#B6B6B6"/>
<circle cx="63.3332" cy="88.6667" r="1.40741" fill="#B6B6B6"/>
<circle cx="63.3332" cy="240.667" r="1.40741" fill="#B6B6B6"/>
<circle cx="215.333" cy="88.6667" r="1.40741" fill="#B6B6B6"/>
<circle cx="417.999" cy="88.6667" r="1.40741" fill="#B6B6B6"/>
<circle cx="215.333" cy="240.667" r="1.40741" fill="#B6B6B6"/>
<circle cx="417.999" cy="240.667" r="1.40741" fill="#B6B6B6"/>
<circle cx="37.9992" cy="12.6667" r="1.40741" fill="#B6B6B6"/>
<circle cx="37.9992" cy="164.667" r="1.40741" fill="#B6B6B6"/>
<circle cx="189.999" cy="12.6667" r="1.40741" fill="#B6B6B6"/>
<circle cx="392.667" cy="12.6667" r="1.40741" fill="#B6B6B6"/>
<circle cx="189.999" cy="164.667" r="1.40741" fill="#B6B6B6"/>
<circle cx="392.667" cy="164.667" r="1.40741" fill="#B6B6B6"/>
<circle cx="37.9992" cy="114" r="1.40741" fill="#B6B6B6"/>
<circle cx="37.9992" cy="266" r="1.40741" fill="#B6B6B6"/>
<circle cx="189.999" cy="114" r="1.40741" fill="#B6B6B6"/>
<circle cx="392.667" cy="114" r="1.40741" fill="#B6B6B6"/>
<circle cx="189.999" cy="266" r="1.40741" fill="#B6B6B6"/>
<circle cx="392.667" cy="266" r="1.40741" fill="#B6B6B6"/>
<circle cx="37.9992" cy="63.3334" r="1.40741" fill="#B6B6B6"/>
<circle cx="37.9992" cy="215.333" r="1.40741" fill="#B6B6B6"/>
<circle cx="189.999" cy="63.3334" r="1.40741" fill="#B6B6B6"/>
<circle cx="392.667" cy="63.3334" r="1.40741" fill="#B6B6B6"/>
<circle cx="189.999" cy="215.333" r="1.40741" fill="#B6B6B6"/>
<circle cx="392.667" cy="215.333" r="1.40741" fill="#B6B6B6"/>
<circle cx="37.9992" cy="37.9999" r="1.40741" fill="#B6B6B6"/>
<circle cx="37.9992" cy="190" r="1.40741" fill="#B6B6B6"/>
<circle cx="189.999" cy="37.9999" r="1.40741" fill="#B6B6B6"/>
<circle cx="392.667" cy="37.9999" r="1.40741" fill="#B6B6B6"/>
<circle cx="189.999" cy="190" r="1.40741" fill="#B6B6B6"/>
<circle cx="392.667" cy="190" r="1.40741" fill="#B6B6B6"/>
<circle cx="37.9992" cy="139.333" r="1.40741" fill="#B6B6B6"/>
<circle cx="189.999" cy="139.333" r="1.40741" fill="#B6B6B6"/>
<circle cx="392.667" cy="139.333" r="1.40741" fill="#B6B6B6"/>
<circle cx="37.9992" cy="88.6667" r="1.40741" fill="#B6B6B6"/>
<circle cx="37.9992" cy="240.667" r="1.40741" fill="#B6B6B6"/>
<circle cx="189.999" cy="88.6667" r="1.40741" fill="#B6B6B6"/>
<circle cx="392.667" cy="88.6667" r="1.40741" fill="#B6B6B6"/>
<circle cx="189.999" cy="240.667" r="1.40741" fill="#B6B6B6"/>
<circle cx="392.667" cy="240.667" r="1.40741" fill="#B6B6B6"/>
<circle cx="139.333" cy="12.6667" r="1.40741" fill="#B6B6B6"/>
<circle cx="341.999" cy="12.6667" r="1.40741" fill="#B6B6B6"/>
<circle cx="544.667" cy="12.6667" r="1.40741" fill="#B6B6B6"/>
<circle cx="139.333" cy="164.667" r="1.40741" fill="#B6B6B6"/>
<circle cx="341.999" cy="164.667" r="1.40741" fill="#B6B6B6"/>
<circle cx="544.667" cy="164.667" r="1.40741" fill="#B6B6B6"/>
<circle cx="291.333" cy="12.6667" r="1.40741" fill="#B6B6B6"/>
<circle cx="493.999" cy="12.6667" r="1.40741" fill="#B6B6B6"/>
<circle cx="291.333" cy="164.667" r="1.40741" fill="#B6B6B6"/>
<circle cx="493.999" cy="164.667" r="1.40741" fill="#B6B6B6"/>
<circle cx="139.333" cy="114" r="1.40741" fill="#B6B6B6"/>
<circle cx="341.999" cy="114" r="1.40741" fill="#B6B6B6"/>
<circle cx="544.667" cy="114" r="1.40741" fill="#B6B6B6"/>
<circle cx="139.333" cy="266" r="1.40741" fill="#B6B6B6"/>
<circle cx="341.999" cy="266" r="1.40741" fill="#B6B6B6"/>
<circle cx="544.667" cy="266" r="1.40741" fill="#B6B6B6"/>
<circle cx="291.333" cy="114" r="1.40741" fill="#B6B6B6"/>
<circle cx="493.999" cy="114" r="1.40741" fill="#B6B6B6"/>
<circle cx="291.333" cy="266" r="1.40741" fill="#B6B6B6"/>
<circle cx="493.999" cy="266" r="1.40741" fill="#B6B6B6"/>
<circle cx="139.333" cy="63.3334" r="1.40741" fill="#B6B6B6"/>
<circle cx="341.999" cy="63.3334" r="1.40741" fill="#B6B6B6"/>
<circle cx="544.667" cy="63.3334" r="1.40741" fill="#B6B6B6"/>
<circle cx="139.333" cy="215.333" r="1.40741" fill="#B6B6B6"/>
<circle cx="341.999" cy="215.333" r="1.40741" fill="#B6B6B6"/>
<circle cx="544.667" cy="215.333" r="1.40741" fill="#B6B6B6"/>
<circle cx="291.333" cy="63.3334" r="1.40741" fill="#B6B6B6"/>
<circle cx="493.999" cy="63.3334" r="1.40741" fill="#B6B6B6"/>
<circle cx="291.333" cy="215.333" r="1.40741" fill="#B6B6B6"/>
<circle cx="493.999" cy="215.333" r="1.40741" fill="#B6B6B6"/>
<circle cx="139.333" cy="37.9999" r="1.40741" fill="#B6B6B6"/>
<circle cx="341.999" cy="37.9999" r="1.40741" fill="#B6B6B6"/>
<circle cx="544.667" cy="37.9999" r="1.40741" fill="#B6B6B6"/>
<circle cx="139.333" cy="190" r="1.40741" fill="#B6B6B6"/>
<circle cx="341.999" cy="190" r="1.40741" fill="#B6B6B6"/>
<circle cx="544.667" cy="190" r="1.40741" fill="#B6B6B6"/>
<circle cx="291.333" cy="37.9999" r="1.40741" fill="#B6B6B6"/>
<circle cx="493.999" cy="37.9999" r="1.40741" fill="#B6B6B6"/>
<circle cx="291.333" cy="190" r="1.40741" fill="#B6B6B6"/>
<circle cx="493.999" cy="190" r="1.40741" fill="#B6B6B6"/>
<circle cx="139.333" cy="139.333" r="1.40741" fill="#B6B6B6"/>
<circle cx="341.999" cy="139.333" r="1.40741" fill="#B6B6B6"/>
<circle cx="544.667" cy="139.333" r="1.40741" fill="#B6B6B6"/>
<circle cx="291.333" cy="139.333" r="1.40741" fill="#B6B6B6"/>
<circle cx="493.999" cy="139.333" r="1.40741" fill="#B6B6B6"/>
<circle cx="139.333" cy="88.6667" r="1.40741" fill="#B6B6B6"/>
<circle cx="341.999" cy="88.6667" r="1.40741" fill="#B6B6B6"/>
<circle cx="544.667" cy="88.6667" r="1.40741" fill="#B6B6B6"/>
<circle cx="139.333" cy="240.667" r="1.40741" fill="#B6B6B6"/>
<circle cx="341.999" cy="240.667" r="1.40741" fill="#B6B6B6"/>
<circle cx="544.667" cy="240.667" r="1.40741" fill="#B6B6B6"/>
<circle cx="291.333" cy="88.6667" r="1.40741" fill="#B6B6B6"/>
<circle cx="493.999" cy="88.6667" r="1.40741" fill="#B6B6B6"/>
<circle cx="291.333" cy="240.667" r="1.40741" fill="#B6B6B6"/>
<circle cx="493.999" cy="240.667" r="1.40741" fill="#B6B6B6"/>
<circle cx="88.6672" cy="12.6667" r="1.40741" fill="#B6B6B6"/>
<circle cx="88.6672" cy="164.667" r="1.40741" fill="#B6B6B6"/>
<circle cx="240.667" cy="12.6667" r="1.40741" fill="#B6B6B6"/>
<circle cx="443.333" cy="12.6667" r="1.40741" fill="#B6B6B6"/>
<circle cx="240.667" cy="164.667" r="1.40741" fill="#B6B6B6"/>
<circle cx="443.333" cy="164.667" r="1.40741" fill="#B6B6B6"/>
<circle cx="88.6672" cy="114" r="1.40741" fill="#B6B6B6"/>
<circle cx="88.6672" cy="266" r="1.40741" fill="#B6B6B6"/>
<circle cx="240.667" cy="114" r="1.40741" fill="#B6B6B6"/>
<circle cx="443.333" cy="114" r="1.40741" fill="#B6B6B6"/>
<circle cx="240.667" cy="266" r="1.40741" fill="#B6B6B6"/>
<circle cx="443.333" cy="266" r="1.40741" fill="#B6B6B6"/>
<circle cx="88.6672" cy="63.3334" r="1.40741" fill="#B6B6B6"/>
<circle cx="88.6672" cy="215.333" r="1.40741" fill="#B6B6B6"/>
<circle cx="240.667" cy="63.3334" r="1.40741" fill="#B6B6B6"/>
<circle cx="443.333" cy="63.3334" r="1.40741" fill="#B6B6B6"/>
<circle cx="240.667" cy="215.333" r="1.40741" fill="#B6B6B6"/>
<circle cx="443.333" cy="215.333" r="1.40741" fill="#B6B6B6"/>
<circle cx="88.6672" cy="37.9999" r="1.40741" fill="#B6B6B6"/>
<circle cx="88.6672" cy="190" r="1.40741" fill="#B6B6B6"/>
<circle cx="240.667" cy="37.9999" r="1.40741" fill="#B6B6B6"/>
<circle cx="443.333" cy="37.9999" r="1.40741" fill="#B6B6B6"/>
<circle cx="240.667" cy="190" r="1.40741" fill="#B6B6B6"/>
<circle cx="443.333" cy="190" r="1.40741" fill="#B6B6B6"/>
<circle cx="88.6672" cy="139.333" r="1.40741" fill="#B6B6B6"/>
<circle cx="240.667" cy="139.333" r="1.40741" fill="#B6B6B6"/>
<circle cx="443.333" cy="139.333" r="1.40741" fill="#B6B6B6"/>
<circle cx="88.6672" cy="88.6667" r="1.40741" fill="#B6B6B6"/>
<circle cx="88.6672" cy="240.667" r="1.40741" fill="#B6B6B6"/>
<circle cx="240.667" cy="88.6667" r="1.40741" fill="#B6B6B6"/>
<circle cx="443.333" cy="88.6667" r="1.40741" fill="#B6B6B6"/>
<circle cx="240.667" cy="240.667" r="1.40741" fill="#B6B6B6"/>
<circle cx="443.333" cy="240.667" r="1.40741" fill="#B6B6B6"/>
</g>
<defs>
<clipPath id="clip0_669_6706">
<rect width="590.342" height="269.075" rx="45" fill="white"/>
</clipPath>
</defs>
</svg>
