<svg width="26" height="20" viewBox="0 0 26 20" fill="none" xmlns="http://www.w3.org/2000/svg">
<path d="M9.27422 15.7696L22.7919 1.24203C23.1109 0.8992 23.4897 0.727783 23.9283 0.727783C24.3669 0.727783 24.7458 0.8992 25.0648 1.24203C25.3838 1.58487 25.5433 1.99198 25.5433 2.46338C25.5433 2.93478 25.3838 3.34189 25.0648 3.68473L10.3907 19.4551C10.0717 19.7979 9.69955 19.9693 9.27422 19.9693C8.84889 19.9693 8.47672 19.7979 8.15772 19.4551L1.2992 12.0842C0.980204 11.7413 0.82735 11.3342 0.840641 10.8628C0.853933 10.3914 1.02008 9.9843 1.33908 9.64147C1.65808 9.29863 2.03689 9.12722 2.47552 9.12722C2.91415 9.12722 3.29296 9.29863 3.61196 9.64147L9.27422 15.7696Z" fill="#70FF63"/>
</svg>
