<svg width="720" height="25" viewBox="0 0 720 25" fill="none" xmlns="http://www.w3.org/2000/svg">
<path d="M718.952 14.8931C677.622 13.6238 636.297 12.1957 594.991 11.1392C569.733 10.5048 544.462 10.2941 519.219 10.1549C496.016 10.0254 472.811 10.0019 449.625 10.3323C412.022 10.8737 374.364 11.2544 336.889 12.5418C236.514 15.9614 136.246 19.8259 35.9241 23.4768C28.6507 23.7482 20.9979 24.644 14.1862 23.569C9.07753 22.7584 2.89687 19.7062 1.03301 16.8573C-1.86288 12.4218 3.90093 10.4785 11.3516 10.3009C53.7137 9.23426 96.0796 8.04408 138.471 7.01365C217.515 5.07694 296.534 2.99805 375.627 1.43389C410.592 0.740815 445.716 0.741736 480.764 1.27036C492.617 1.45767 504.468 1.6803 516.352 1.83323C526.555 1.96988 537.08 4.32502 546.889 3.58381C561.513 2.47807 575.534 6.37175 589.374 5.38327C607.967 4.06372 625.668 7.38132 643.814 7.92093C662.89 8.47144 681.994 9.0935 701.059 10.0324C707.263 10.3466 713.375 11.7358 719.531 12.6493C719.358 13.3861 719.185 14.1405 719.012 14.8949L718.952 14.8931Z" fill="#FFECD2"/>
</svg>
